<svg enable-background="new 0 0 1200 1200" height="1200" viewBox="0 0 1200 1200" width="1200" xmlns="http://www.w3.org/2000/svg"><path d="m600 0c-331.371 0-600 268.629-600 600s268.629 600 600 600 600-268.629 600-600-268.629-600-600-600zm-215.625 238.33c12.362-.729 23.536 6.66 32.007 19.775l82.031 155.566c8.637 18.434 3.729 38.172-9.155 51.343l-37.573 37.573c-2.319 3.178-3.845 6.757-3.882 10.693 14.409 55.775 58.117 107.223 96.681 142.603 38.562 35.38 80.009 83.281 133.812 94.629 6.65 1.855 14.797 2.52 19.556-1.903l43.652-44.458c15.068-11.421 36.866-16.956 52.954-7.617h.732l148.021 87.378c21.728 13.619 23.979 39.944 8.423 55.957l-101.951 101.147c-15.056 15.44-35.058 20.631-54.491 20.654-85.948-2.575-167.158-44.759-233.862-88.11-109.49-79.653-209.923-178.446-272.975-297.803-24.182-50.05-52.589-113.91-49.878-169.774.242-21.016 5.928-41.605 20.728-55.151l101.953-101.953c7.942-6.758 15.799-10.111 23.217-10.549z"/></svg>